<svg class="svg-icon" style="width: 1em; height: 1em;vertical-align: middle;fill: currentColor;overflow: hidden;" viewBox="0 0 1024 1024" version="1.1" xmlns="http://www.w3.org/2000/svg"><path d="M455.6 600.4c-10.2-10.2-10.2-26.6 0-36.8l267.4-267.4c-10.6-5.2-22.4-8.2-35-8.2H176c-44 0-80 36-80 80v448c0 44 36 80 80 80h512c44 0 80-36 80-80V368c0-12.6-3-24.4-8.2-35L492.4 600.4c-10.2 10.2-26.6 10.2-36.8 0z"  /><path d="M919 137C914 132 906 128 898 128h-194c-14.4-0.2-26.2 11.4-26.2 25.8-0.2 14.4 11.4 26.2 25.8 26.2l134.6 1-115.2 115.2c16 7.8 29 20.8 36.8 36.8l115.2-115.2 1 134.6c0.2 14.4 11.8 26 26.2 25.8 14.4-0.2 26-11.8 25.8-26.2V156c0-7-4-14-9-19z"  /></svg>