<svg width="256" height="256" viewBox="0 0 256 256" fill="none" xmlns="http://www.w3.org/2000/svg">
<circle cx="128" cy="128" r="125" stroke="#5DBDA2" stroke-width="5"/>
<path d="M106.283 153.07C102.938 156.442 101.266 158.128 99.183 158.128C97.1 158.129 95.4277 156.443 92.083 153.071L70.9879 131.804C68.9892 129.789 67.9899 128.782 66.8344 128.408C65.8341 128.085 64.7572 128.084 63.7569 128.408C62.6013 128.782 61.6019 129.789 59.6029 131.804C57.6325 133.79 56.6473 134.783 56.281 135.927C55.9639 136.918 55.9638 137.983 56.2808 138.975C56.647 140.119 57.6321 141.112 59.6023 143.098L92.0832 175.843C95.4277 179.214 97.1 180.9 99.183 180.9C101.266 180.9 102.938 179.214 106.283 175.842L190.399 91.0355C192.369 89.0494 193.354 88.0563 193.72 86.9117C194.037 85.9211 194.037 84.8565 193.721 83.8659C193.355 82.7212 192.37 81.728 190.4 79.7417C188.401 77.7254 187.401 76.7172 186.245 76.3433C185.245 76.0198 184.168 76.0197 183.168 76.3431C182.012 76.717 181.012 77.725 179.012 79.7412L106.283 153.07Z" fill="#5DBDA2"/>
</svg>
